<?xml version="1.0" encoding="UTF-8"?>
<svg width="1885px" height="474px" viewBox="0 0 1885 474" version="1.1" xmlns="http://www.w3.org/2000/svg" xmlns:xlink="http://www.w3.org/1999/xlink">
    <!-- Generator: Sketch 40.3 (33839) - http://www.bohemiancoding.com/sketch -->
    <title>Artboard 2</title>
    <desc>Created with Sketch.</desc>
    <defs></defs>
    <g id="Page-1" stroke="none" stroke-width="1" fill="none" fill-rule="evenodd">
        <g id="Artboard-2">
            <g id="Group" transform="translate(25.000000, 25.000000)">
                <g id="Group-4" fill="#000000">
                    <rect id="Rectangle-6" transform="translate(95.971602, 212.953316) rotate(90.000000) translate(-95.971602, -212.953316) " x="-114.78952" y="175.698159" width="421.522244" height="74.5103142"></rect>
                    <rect id="Rectangle-6" transform="translate(227.971602, 212.746761) rotate(90.000000) translate(-227.971602, -212.746761) " x="17.2104804" y="175.491604" width="421.522244" height="74.5103142"></rect>
                    <rect id="Rectangle-6" transform="translate(364.212430, 211.419639) rotate(90.000000) translate(-364.212430, -211.419639) " x="153.451308" y="174.164482" width="421.522244" height="74.5103142"></rect>
                    <g id="Group-3" transform="translate(0.000000, 78.566038)">
                        <rect id="Rectangle-6" x="0" y="4.54747351e-13" width="454.211724" height="74.5103142"></rect>
                        <rect id="Rectangle-6" x="0" y="193.726817" width="454.211724" height="74.5103142"></rect>
                    </g>
                </g>
                <path d="M593.713643,109.145427 L517,109.145427 L517,0 L807.638681,0 L807.638681,109.145427 L730.925037,109.145427 L730.925037,416 L593.713643,416 L593.713643,109.145427 Z M670.427286,366.104948 L670.427286,64.8635682 L759.614693,64.8635682 L759.614693,49.8950525 L565.023988,49.8950525 L565.023988,64.8635682 L654.211394,64.8635682 L654.211394,366.104948 L670.427286,366.104948 Z M959.194903,271.304348 C975.410876,271.304348 991.210818,269.641196 1006.5952,266.314843 L1065.84558,366.104948 L1085.17991,366.104948 L1022.81109,261.325337 C1045.26398,253.425248 1063.14286,241.26345 1076.44828,224.83958 C1089.75369,208.41571 1096.4063,187.106578 1096.4063,160.911544 C1096.4063,142.6166 1092.8721,126.608764 1085.8036,112.887556 C1078.7351,99.1663482 1069.06803,87.6282327 1056.8021,78.2728636 C1044.53617,68.9174945 1030.08754,61.8490994 1013.45577,57.0674663 C996.824005,52.2858332 978.737229,49.8950525 959.194903,49.8950525 L891.836582,49.8950525 L891.836582,366.104948 L908.052474,366.104948 L908.052474,271.304348 L959.194903,271.304348 Z M908.052474,256.335832 L908.052474,64.8635682 L959.194903,64.8635682 C997.032173,64.8635682 1026.65706,73.1793271 1048.07046,89.8110945 C1069.48387,106.442862 1080.1904,130.142775 1080.1904,160.911544 C1080.1904,191.680314 1069.48387,215.27628 1048.07046,231.70015 C1026.65706,248.12402 997.032173,256.335832 959.194903,256.335832 L908.052474,256.335832 Z M829.467766,0 L972.916042,0 C999.52687,0 1024.16231,3.53419754 1046.82309,10.6026987 C1069.48387,17.6711998 1089.12985,28.0658984 1105.76162,41.7871064 C1122.39339,55.5083145 1135.38676,72.4516733 1144.74213,92.6176912 C1154.0975,112.783709 1158.77511,135.963887 1158.77511,162.158921 C1158.77511,182.94863 1155.8646,200.619617 1150.04348,215.172414 C1144.22236,229.72521 1137.77765,241.783061 1130.70915,251.346327 C1122.39326,262.156976 1113.03803,271.30431 1102.64318,278.788606 L1180.6042,416 L1024.68216,416 L962.313343,310.596702 L962.313343,416 L829.467766,416 L829.467766,0 Z M962.313343,204.569715 L969.173913,204.569715 C984.974092,204.569715 998.383253,201.035518 1009.4018,193.967016 C1020.42034,186.898515 1025.92954,175.048559 1025.92954,158.416792 C1025.92954,141.785024 1020.42034,129.935068 1009.4018,122.866567 C998.383253,115.798066 984.974092,112.263868 969.173913,112.263868 L962.313343,112.263868 L962.313343,204.569715 Z M1193.07796,0 L1438.18741,0 L1438.18741,109.145427 L1325.92354,109.145427 L1325.92354,155.298351 L1436.31634,155.298351 L1436.31634,258.830585 L1325.92354,258.830585 L1325.92354,306.854573 L1442.55322,306.854573 L1442.55322,416 L1193.07796,416 L1193.07796,0 Z M1396.4003,366.104948 L1396.4003,351.136432 L1271.66267,351.136432 L1271.66267,214.548726 L1390.16342,214.548726 L1390.16342,199.58021 L1271.66267,199.58021 L1271.66267,64.8635682 L1396.4003,64.8635682 L1396.4003,49.8950525 L1255.44678,49.8950525 L1255.44678,366.104948 L1396.4003,366.104948 Z M1479.97451,0 L1589.11994,0 L1703.87856,160.287856 L1703.87856,0 L1834.22939,0 L1834.22939,416 L1724.46027,416 L1610.32534,256.335832 L1610.32534,416 L1479.97451,416 L1479.97451,0 Z M1554.1934,366.104948 L1554.1934,77.9610195 L1760.01049,366.104948 L1776.22639,366.104948 L1776.22639,49.8950525 L1760.01049,49.8950525 L1760.01049,338.038981 L1554.1934,49.8950525 L1537.97751,49.8950525 L1537.97751,366.104948 L1554.1934,366.104948 Z" id="tren" fill="#E20000"></path>
            </g>
        </g>
    </g>
</svg>